# xmcd CD database file
#
# Track frame offsets:
#	150
#	20509
#	34859
#	59682
#	74449
#	89090
#	107437
#	128715
#	144379
#	161679
#	186964
#
# Disc length: 2782 seconds
#
# Revision: 0
# Processed by: cddbd v1.5.2PL0 Copyright (c) Steve Scherf et al.
# Submitted via: CDex 1.51
#
DISCID=9e0adc0b
DTITLE=Gaelle Buswel - New Day's Waiting
DYEAR=2017
DGENRE=Blues
TTITLE0=Dreams Set Me Free
TTITLE1=Wonderland
TTITLE2=So Blue
TTITLE3=No One Else
TTITLE4=Makers Of Love
TTITLE5=New Day's Waiting
TTITLE6=25 Hours
TTITLE7=If I Fall
TTITLE8=Freedom Tonight
TTITLE9=Soldier Of Love
TTITLE10=Selfish Game (Live Austin, Texas)
EXTD=YEAR: 2017
EXTT0=
EXTT1=
EXTT2=
EXTT3=
EXTT4=
EXTT5=
EXTT6=
EXTT7=
EXTT8=
EXTT9=
EXTT10=
PLAYORDER=
